<svg height="2926" width="720" xmlns="http://www.w3.org/2000/svg">
<rect height="2926" fill="#555" width="720"></rect>
<text fill="#7f7" font-family="Courier New" font-size="12" xml:space="preserve">
<tspan x="10" y="26">21 megabytes installed</tspan>
<tspan x="10" y="42"></tspan>
<tspan x="10" y="58">node_modules</tspan>
<tspan x="10" y="74">└─┬ jitsu@0.15.0 </tspan>
<tspan x="10" y="90">  ├─┬ canihaz@1.0.1 </tspan>
<tspan x="10" y="106">  │ ├── mkdirp@0.3.5 </tspan>
<tspan x="10" y="122">  │ ├── semver@1.1.4 </tspan>
<tspan x="10" y="138">  │ └── which@1.0.9 </tspan>
<tspan x="10" y="154">  ├── colors@0.6.2 </tspan>
<tspan x="10" y="170">  ├── complete@0.3.1 </tspan>
<tspan x="10" y="186">  ├── dateformat@1.0.8-1.2.3 </tspan>
<tspan x="10" y="202">  ├─┬ flatiron@0.3.11 </tspan>
<tspan x="10" y="218">  │ ├─┬ broadway@0.2.9 </tspan>
<tspan x="10" y="234">  │ │ ├─┬ cliff@0.1.8 </tspan>
<tspan x="10" y="250">  │ │ │ └─┬ winston@0.6.2 </tspan>
<tspan x="10" y="266">  │ │ │   ├── pkginfo@0.2.3 </tspan>
<tspan x="10" y="282">  │ │ │   └── request@2.9.203 </tspan>
<tspan x="10" y="298">  │ │ ├── eventemitter2@0.4.12 </tspan>
<tspan x="10" y="314">  │ │ ├─┬ nconf@0.6.9 </tspan>
<tspan x="10" y="330">  │ │ │ ├── async@0.2.9 </tspan>
<tspan x="10" y="346">  │ │ │ └── ini@1.3.4 </tspan>
<tspan x="10" y="362">  │ │ ├─┬ utile@0.2.1 </tspan>
<tspan x="10" y="378">  │ │ │ ├── async@0.2.10 </tspan>
<tspan x="10" y="394">  │ │ │ ├── deep-equal@1.0.1 </tspan>
<tspan x="10" y="410">  │ │ │ ├── i@0.3.5 </tspan>
<tspan x="10" y="426">  │ │ │ └── ncp@0.4.2 </tspan>
<tspan x="10" y="442">  │ │ └─┬ winston@0.7.2 </tspan>
<tspan x="10" y="458">  │ │   ├── async@0.2.10 </tspan>
<tspan x="10" y="474">  │ │   └─┬ request@2.16.6 </tspan>
<tspan x="10" y="490">  │ │     ├── aws-sign@0.2.0 </tspan>
<tspan x="10" y="506">  │ │     ├── cookie-jar@0.2.0 </tspan>
<tspan x="10" y="522">  │ │     ├── forever-agent@0.2.0 </tspan>
<tspan x="10" y="538">  │ │     ├─┬ form-data@0.0.10 </tspan>
<tspan x="10" y="554">  │ │     │ └── async@0.2.10 </tspan>
<tspan x="10" y="570">  │ │     ├─┬ hawk@0.10.2 </tspan>
<tspan x="10" y="586">  │ │     │ ├── boom@0.3.8 </tspan>
<tspan x="10" y="602">  │ │     │ ├── cryptiles@0.1.3 </tspan>
<tspan x="10" y="618">  │ │     │ ├── hoek@0.7.6 </tspan>
<tspan x="10" y="634">  │ │     │ └── sntp@0.1.4 </tspan>
<tspan x="10" y="650">  │ │     ├── json-stringify-safe@3.0.0 </tspan>
<tspan x="10" y="666">  │ │     ├── oauth-sign@0.2.0 </tspan>
<tspan x="10" y="682">  │ │     ├── qs@0.5.6 </tspan>
<tspan x="10" y="698">  │ │     └── tunnel-agent@0.2.0 </tspan>
<tspan x="10" y="714">  │ ├── director@1.1.10 </tspan>
<tspan x="10" y="730">  │ ├─┬ optimist@0.6.0 </tspan>
<tspan x="10" y="746">  │ │ ├── minimist@0.0.10 </tspan>
<tspan x="10" y="762">  │ │ └── wordwrap@0.0.3 </tspan>
<tspan x="10" y="778">  │ └─┬ prompt@0.2.11 </tspan>
<tspan x="10" y="794">  │   ├─┬ read@1.0.7 </tspan>
<tspan x="10" y="810">  │   │ └── mute-stream@0.0.7 </tspan>
<tspan x="10" y="826">  │   ├── revalidator@0.1.8 </tspan>
<tspan x="10" y="842">  │   └─┬ winston@0.6.2 </tspan>
<tspan x="10" y="858">  │     ├── pkginfo@0.2.3 </tspan>
<tspan x="10" y="874">  │     └── request@2.9.203 </tspan>
<tspan x="10" y="890">  ├── flatiron-cli-config@0.1.4 </tspan>
<tspan x="10" y="906">  ├── flatiron-cli-users@0.1.10 </tspan>
<tspan x="10" y="922">  ├─┬ fstream@0.1.25 </tspan>
<tspan x="10" y="938">  │ ├── graceful-fs@2.0.3 </tspan>
<tspan x="10" y="954">  │ ├── inherits@2.0.3 </tspan>
<tspan x="10" y="970">  │ └─┬ rimraf@2.6.1 </tspan>
<tspan x="10" y="986">  │   └─┬ glob@7.1.1 </tspan>
<tspan x="10" y="1002">  │     ├── fs.realpath@1.0.0 </tspan>
<tspan x="10" y="1018">  │     ├─┬ inflight@1.0.6 </tspan>
<tspan x="10" y="1034">  │     │ └── wrappy@1.0.2 </tspan>
<tspan x="10" y="1050">  │     ├─┬ minimatch@3.0.3 </tspan>
<tspan x="10" y="1066">  │     │ └─┬ brace-expansion@1.1.7 </tspan>
<tspan x="10" y="1082">  │     │   ├── balanced-match@0.4.2 </tspan>
<tspan x="10" y="1098">  │     │   └── concat-map@0.0.1 </tspan>
<tspan x="10" y="1114">  │     ├── once@1.4.0 </tspan>
<tspan x="10" y="1130">  │     └── path-is-absolute@1.0.1 </tspan>
<tspan x="10" y="1146">  ├─┬ fstream-npm@0.1.6 </tspan>
<tspan x="10" y="1162">  │ └─┬ fstream-ignore@0.0.10 </tspan>
<tspan x="10" y="1178">  │   └─┬ minimatch@0.3.0 </tspan>
<tspan x="10" y="1194">  │     ├── lru-cache@2.7.3 </tspan>
<tspan x="10" y="1210">  │     └── sigmund@1.0.1 </tspan>
<tspan x="10" y="1226">  ├── ladder@0.0.1 </tspan>
<tspan x="10" y="1242">  ├─┬ nodejitsu-api@0.6.4 </tspan>
<tspan x="10" y="1258">  │ ├─┬ preacher-api@0.1.7 </tspan>
<tspan x="10" y="1274">  │ │ ├─┬ primus@1.4.7 </tspan>
<tspan x="10" y="1290">  │ │ │ ├── extendable@0.0.6 </tspan>
<tspan x="10" y="1306">  │ │ │ └── load@1.0.2 </tspan>
<tspan x="10" y="1322">  │ │ ├─┬ request@2.25.0 </tspan>
<tspan x="10" y="1338">  │ │ │ ├── aws-sign@0.3.0 </tspan>
<tspan x="10" y="1354">  │ │ │ ├── cookie-jar@0.3.0 </tspan>
<tspan x="10" y="1370">  │ │ │ ├── forever-agent@0.5.2 </tspan>
<tspan x="10" y="1386">  │ │ │ ├─┬ form-data@0.1.4 </tspan>
<tspan x="10" y="1402">  │ │ │ │ └── async@0.9.2 </tspan>
<tspan x="10" y="1418">  │ │ │ ├─┬ hawk@1.0.0 </tspan>
<tspan x="10" y="1434">  │ │ │ │ ├── boom@0.4.2 </tspan>
<tspan x="10" y="1450">  │ │ │ │ ├── cryptiles@0.2.2 </tspan>
<tspan x="10" y="1466">  │ │ │ │ ├── hoek@0.9.1 </tspan>
<tspan x="10" y="1482">  │ │ │ │ └── sntp@0.2.4 </tspan>
<tspan x="10" y="1498">  │ │ │ ├── json-stringify-safe@5.0.1 </tspan>
<tspan x="10" y="1514">  │ │ │ ├── oauth-sign@0.3.0 </tspan>
<tspan x="10" y="1530">  │ │ │ ├── qs@0.6.6 </tspan>
<tspan x="10" y="1546">  │ │ │ └── tunnel-agent@0.3.0 </tspan>
<tspan x="10" y="1562">  │ │ └─┬ ws@0.4.32 </tspan>
<tspan x="10" y="1578">  │ │   ├── commander@2.1.0 </tspan>
<tspan x="10" y="1594">  │ │   ├── nan@1.0.0 </tspan>
<tspan x="10" y="1610">  │ │   ├── options@0.0.6 </tspan>
<tspan x="10" y="1626">  │ │   └── tinycolor@0.0.1 </tspan>
<tspan x="10" y="1642">  │ └─┬ request@2.25.0 </tspan>
<tspan x="10" y="1658">  │   ├── aws-sign@0.3.0 </tspan>
<tspan x="10" y="1674">  │   ├── cookie-jar@0.3.0 </tspan>
<tspan x="10" y="1690">  │   ├── forever-agent@0.5.2 </tspan>
<tspan x="10" y="1706">  │   ├─┬ form-data@0.1.4 </tspan>
<tspan x="10" y="1722">  │   │ └── async@0.9.2 </tspan>
<tspan x="10" y="1738">  │   ├─┬ hawk@1.0.0 </tspan>
<tspan x="10" y="1754">  │   │ ├── boom@0.4.2 </tspan>
<tspan x="10" y="1770">  │   │ ├── cryptiles@0.2.2 </tspan>
<tspan x="10" y="1786">  │   │ ├── hoek@0.9.1 </tspan>
<tspan x="10" y="1802">  │   │ └── sntp@0.2.4 </tspan>
<tspan x="10" y="1818">  │   ├── json-stringify-safe@5.0.1 </tspan>
<tspan x="10" y="1834">  │   ├── mime@1.2.11 </tspan>
<tspan x="10" y="1850">  │   ├── oauth-sign@0.3.0 </tspan>
<tspan x="10" y="1866">  │   ├── qs@0.6.6 </tspan>
<tspan x="10" y="1882">  │   └── tunnel-agent@0.3.0 </tspan>
<tspan x="10" y="1898">  ├── opener@1.4.3 </tspan>
<tspan x="10" y="1914">  ├── pkginfo@0.3.0 </tspan>
<tspan x="10" y="1930">  ├── progress@0.1.0 </tspan>
<tspan x="10" y="1946">  ├─┬ request@2.42.0 </tspan>
<tspan x="10" y="1962">  │ ├── aws-sign2@0.5.0 </tspan>
<tspan x="10" y="1978">  │ ├─┬ bl@0.9.5 </tspan>
<tspan x="10" y="1994">  │ │ └─┬ readable-stream@1.0.34 </tspan>
<tspan x="10" y="2010">  │ │   ├── core-util-is@1.0.2 </tspan>
<tspan x="10" y="2026">  │ │   ├── isarray@0.0.1 </tspan>
<tspan x="10" y="2042">  │ │   └── string_decoder@0.10.31 </tspan>
<tspan x="10" y="2058">  │ ├── caseless@0.6.0 </tspan>
<tspan x="10" y="2074">  │ ├── forever-agent@0.5.2 </tspan>
<tspan x="10" y="2090">  │ ├─┬ form-data@0.1.4 </tspan>
<tspan x="10" y="2106">  │ │ ├── async@0.9.2 </tspan>
<tspan x="10" y="2122">  │ │ └─┬ combined-stream@0.0.7 </tspan>
<tspan x="10" y="2138">  │ │   └── delayed-stream@0.0.5 </tspan>
<tspan x="10" y="2154">  │ ├─┬ hawk@1.1.1 </tspan>
<tspan x="10" y="2170">  │ │ ├── boom@0.4.2 </tspan>
<tspan x="10" y="2186">  │ │ ├── cryptiles@0.2.2 </tspan>
<tspan x="10" y="2202">  │ │ ├── hoek@0.9.1 </tspan>
<tspan x="10" y="2218">  │ │ └── sntp@0.2.4 </tspan>
<tspan x="10" y="2234">  │ ├─┬ http-signature@0.10.1 </tspan>
<tspan x="10" y="2250">  │ │ ├── asn1@0.1.11 </tspan>
<tspan x="10" y="2266">  │ │ ├── assert-plus@0.1.5 </tspan>
<tspan x="10" y="2282">  │ │ └── ctype@0.5.3 </tspan>
<tspan x="10" y="2298">  │ ├── json-stringify-safe@5.0.1 </tspan>
<tspan x="10" y="2314">  │ ├── mime-types@1.0.2 </tspan>
<tspan x="10" y="2330">  │ ├── node-uuid@1.4.8 </tspan>
<tspan x="10" y="2346">  │ ├── oauth-sign@0.4.0 </tspan>
<tspan x="10" y="2362">  │ ├── qs@1.2.2 </tspan>
<tspan x="10" y="2378">  │ ├── stringstream@0.0.5 </tspan>
<tspan x="10" y="2394">  │ ├─┬ tough-cookie@2.3.2 </tspan>
<tspan x="10" y="2410">  │ │ └── punycode@1.4.1 </tspan>
<tspan x="10" y="2426">  │ └── tunnel-agent@0.4.3 </tspan>
<tspan x="10" y="2442">  ├─┬ require-analyzer@0.5.0 </tspan>
<tspan x="10" y="2458">  │ ├─┬ detective@0.0.4 </tspan>
<tspan x="10" y="2474">  │ │ └─┬ burrito@0.2.12 </tspan>
<tspan x="10" y="2490">  │ │   ├── traverse@0.5.2 </tspan>
<tspan x="10" y="2506">  │ │   └── uglify-js@1.1.1 </tspan>
<tspan x="10" y="2522">  │ ├── eyes@0.1.8 </tspan>
<tspan x="10" y="2538">  │ ├── optimist@0.3.7 </tspan>
<tspan x="10" y="2554">  │ ├─┬ read-installed@0.0.4 </tspan>
<tspan x="10" y="2570">  │ │ ├── graceful-fs@1.1.14 </tspan>
<tspan x="10" y="2586">  │ │ ├─┬ npmlog@0.1.1 </tspan>
<tspan x="10" y="2602">  │ │ │ └── ansi@0.3.1 </tspan>
<tspan x="10" y="2618">  │ │ ├─┬ read-package-json@0.4.1 </tspan>
<tspan x="10" y="2634">  │ │ │ ├─┬ glob@3.2.11 </tspan>
<tspan x="10" y="2650">  │ │ │ │ └── minimatch@0.3.0 </tspan>
<tspan x="10" y="2666">  │ │ │ ├── graceful-fs@1.2.3 </tspan>
<tspan x="10" y="2682">  │ │ │ └─┬ normalize-package-data@0.1.7 </tspan>
<tspan x="10" y="2698">  │ │ │   └── github-url-from-git@1.1.1 </tspan>
<tspan x="10" y="2714">  │ │ └── slide@1.1.6 </tspan>
<tspan x="10" y="2730">  │ ├── resolve@0.2.8 </tspan>
<tspan x="10" y="2746">  │ └─┬ winston@0.6.2 </tspan>
<tspan x="10" y="2762">  │   ├── async@0.1.22 </tspan>
<tspan x="10" y="2778">  │   ├── cycle@1.0.3 </tspan>
<tspan x="10" y="2794">  │   ├── pkginfo@0.2.3 </tspan>
<tspan x="10" y="2810">  │   ├── request@2.9.203 </tspan>
<tspan x="10" y="2826">  │   └── stack-trace@0.0.9 </tspan>
<tspan x="10" y="2842">  ├── semver@1.0.14 </tspan>
<tspan x="10" y="2858">  ├── spawn-command@0.0.2 </tspan>
<tspan x="10" y="2874">  ├─┬ tar@0.1.18 </tspan>
<tspan x="10" y="2890">  │ └── block-stream@0.0.9 </tspan>
<tspan x="10" y="2906">  └── wizard@0.0.1</tspan>
</text>
</svg>
